<svg width="123" height="59" viewBox="0 0 123 59" version="1.1" xmlns="http://www.w3.org/2000/svg" xmlns:xlink="http://www.w3.org/1999/xlink">
    <g fill="none">
        <path d="M 0 33L 122.966 33L 123 35L 0.0341571 35L 0 33Z" fill="white"/>
        <path d="M 8.60078 59C 7.13885 59 5.81355 58.6806 4.62488 58.0417C 3.44988 57.3889 2.5208 56.4931 1.83766 55.3542C 1.16818 54.2014 0.833435 52.9028 0.833435 51.4583C 0.833435 50.0139 1.16818 48.7222 1.83766 47.5833C 2.5208 46.4306 3.44988 45.5347 4.62488 44.8958C 5.81355 44.2431 7.14568 43.9167 8.62127 43.9167C 9.86459 43.9167 10.9849 44.1389 11.9823 44.5833C 12.9934 45.0278 13.8405 45.6667 14.5236 46.5L 12.3922 48.5C 11.4222 47.3611 10.2198 46.7917 8.78523 46.7917C 7.89714 46.7917 7.10469 46.9931 6.40789 47.3958C 5.71108 47.7847 5.16457 48.3333 4.76834 49.0417C 4.38578 49.75 4.1945 50.5556 4.1945 51.4583C 4.1945 52.3611 4.38578 53.1667 4.76834 53.875C 5.16457 54.5833 5.71108 55.1389 6.40789 55.5417C 7.10469 55.9306 7.89714 56.125 8.78523 56.125C 10.2198 56.125 11.4222 55.5486 12.3922 54.3958L 14.5236 56.3958C 13.8405 57.2431 12.9934 57.8889 11.9823 58.3333C 10.9713 58.7778 9.8441 59 8.60078 59Z" fill="white"/>
        <path d="M 30.852 55.625L 24.1913 55.625L 22.9207 58.75L 19.5186 58.75L 25.9129 44.1667L 29.192 44.1667L 35.6067 58.75L 32.1226 58.75L 30.852 55.625ZM 29.8068 53.0625L 27.5319 47.4792L 25.257 53.0625L 29.8068 53.0625Z" fill="white"/>
        <path d="M 48.2235 44.1667C 49.4941 44.1667 50.594 44.3819 51.5231 44.8125C 52.4658 45.2431 53.1899 45.8542 53.6955 46.6458C 54.201 47.4375 54.4538 48.375 54.4538 49.4583C 54.4538 50.5278 54.201 51.4653 53.6955 52.2708C 53.1899 53.0625 52.4658 53.6736 51.5231 54.1042C 50.594 54.5208 49.4941 54.7292 48.2235 54.7292L 45.3338 54.7292L 45.3338 58.75L 42.0137 58.75L 42.0137 44.1667L 48.2235 44.1667ZM 48.039 51.9792C 49.0364 51.9792 49.7947 51.7639 50.3139 51.3333C 50.8331 50.8889 51.0927 50.2639 51.0927 49.4583C 51.0927 48.6389 50.8331 48.0139 50.3139 47.5833C 49.7947 47.1389 49.0364 46.9167 48.039 46.9167L 45.3338 46.9167L 45.3338 51.9792L 48.039 51.9792Z" fill="white"/>
        <path d="M 61.7427 44.1667L 65.0628 44.1667L 65.0628 58.75L 61.7427 58.75L 61.7427 44.1667Z" fill="white"/>
        <path d="M 76.3577 46.9167L 71.767 46.9167L 71.767 44.1667L 84.2685 44.1667L 84.2685 46.9167L 79.6778 46.9167L 79.6778 58.75L 76.3577 58.75L 76.3577 46.9167Z" fill="white"/>
        <path d="M 99.7009 55.625L 93.0402 55.625L 91.7695 58.75L 88.3675 58.75L 94.7617 44.1667L 98.0408 44.1667L 104.456 58.75L 100.971 58.75L 99.7009 55.625ZM 98.6556 53.0625L 96.3808 47.4792L 94.1059 53.0625L 98.6556 53.0625Z" fill="white"/>
        <path d="M 110.863 44.1667L 114.183 44.1667L 114.183 56L 121.376 56L 121.376 58.75L 110.863 58.75L 110.863 44.1667Z" fill="white"/>
        <path d="M 12.9456 25.1389C 10.509 25.1389 8.30019 24.6065 6.31908 23.5417C 4.36073 22.4537 2.81227 20.9606 1.6737 19.0625C 0.557901 17.1412 0 14.9769 0 12.5694C 0 10.162 0.557901 8.00926 1.6737 6.11111C 2.81227 4.18981 4.36073 2.69676 6.31908 1.63194C 8.30019 0.543981 10.5204 0 12.9797 0C 15.0519 0 16.9192 0.37037 18.5815 1.11111C 20.2666 1.85185 21.6784 2.91667 22.817 4.30556L 19.2646 7.63889C 17.6479 5.74074 15.644 4.79167 13.253 4.79167C 11.7728 4.79167 10.4521 5.12731 9.29075 5.79861C 8.12941 6.44676 7.21855 7.36111 6.55818 8.54167C 5.92058 9.72222 5.60178 11.0648 5.60178 12.5694C 5.60178 14.0741 5.92058 15.4167 6.55818 16.5972C 7.21855 17.7778 8.12941 18.7037 9.29075 19.375C 10.4521 20.0231 11.7728 20.3472 13.253 20.3472C 15.644 20.3472 17.6479 19.3866 19.2646 17.4653L 22.817 20.7986C 21.6784 22.2106 20.2666 23.287 18.5815 24.0278C 16.8964 24.7685 15.0178 25.1389 12.9456 25.1389Z" fill="white"/>
        <path d="M 42.1294 24.7222L 37.5182 17.9514L 32.4288 17.9514L 32.4288 24.7222L 26.8953 24.7222L 26.8953 0.416668L 37.2449 0.416668C 39.3627 0.416668 41.1958 0.775463 42.7442 1.49305C 44.3155 2.21065 45.5224 3.22917 46.3649 4.54861C 47.2074 5.86806 47.6287 7.43056 47.6287 9.23611C 47.6287 11.0417 47.1961 12.6042 46.3307 13.9236C 45.4882 15.2199 44.2813 16.2153 42.7101 16.9097L 48.0728 24.7222L 42.1294 24.7222ZM 42.0269 9.23611C 42.0269 7.87037 41.5943 6.8287 40.729 6.11111C 39.8637 5.37037 38.5998 5 36.9375 5L 32.4288 5L 32.4288 13.4722L 36.9375 13.4722C 38.5998 13.4722 39.8637 13.1019 40.729 12.3611C 41.5943 11.6204 42.0269 10.5787 42.0269 9.23611Z" fill="white"/>
        <path d="M 63.9337 25.1389C 61.4516 25.1389 59.2086 24.5949 57.2047 23.5069C 55.2236 22.419 53.6638 20.9259 52.5252 19.0278C 51.4094 17.1065 50.8515 14.9537 50.8515 12.5694C 50.8515 10.1852 51.4094 8.04398 52.5252 6.14583C 53.6638 4.22454 55.2236 2.71991 57.2047 1.63194C 59.2086 0.543981 61.4516 0 63.9337 0C 66.4158 0 68.6474 0.543981 70.6285 1.63194C 72.6096 2.71991 74.1695 4.22454 75.308 6.14583C 76.4466 8.04398 77.0159 10.1852 77.0159 12.5694C 77.0159 14.9537 76.4466 17.1065 75.308 19.0278C 74.1695 20.9259 72.6096 22.419 70.6285 23.5069C 68.6474 24.5949 66.4158 25.1389 63.9337 25.1389ZM 63.9337 20.3472C 65.3455 20.3472 66.6207 20.0231 67.7593 19.375C 68.8979 18.7037 69.786 17.7778 70.4236 16.5972C 71.0839 15.4167 71.4141 14.0741 71.4141 12.5694C 71.4141 11.0648 71.0839 9.72222 70.4236 8.54167C 69.786 7.36111 68.8979 6.44676 67.7593 5.79861C 66.6207 5.12731 65.3455 4.79167 63.9337 4.79167C 62.5219 4.79167 61.2467 5.12731 60.1081 5.79861C 58.9695 6.44676 58.0701 7.36111 57.4097 8.54167C 56.7721 9.72222 56.4533 11.0648 56.4533 12.5694C 56.4533 14.0741 56.7721 15.4167 57.4097 16.5972C 58.0701 17.7778 58.9695 18.7037 60.1081 19.375C 61.2467 20.0231 62.5219 20.3472 63.9337 20.3472Z" fill="white"/>
        <path d="M 89.3723 25.1389C 87.4822 25.1389 85.6491 24.8843 83.873 24.375C 82.1196 23.8426 80.7077 23.1597 79.6375 22.3264L 81.5161 18.0903C 82.5408 18.8542 83.7591 19.4676 85.1709 19.9306C 86.5827 20.3935 87.9946 20.625 89.4064 20.625C 90.9776 20.625 92.139 20.3935 92.8904 19.9306C 93.6419 19.4444 94.0176 18.8079 94.0176 18.0208C 94.0176 17.4421 93.7899 16.9676 93.3345 16.5972C 92.9018 16.2037 92.3326 15.8912 91.6266 15.6597C 90.9435 15.4282 90.0098 15.1736 88.8257 14.8958C 87.004 14.456 85.5125 14.0162 84.3512 13.5764C 83.1898 13.1366 82.1879 12.4306 81.3453 11.4583C 80.5255 10.4861 80.1157 9.18982 80.1157 7.56945C 80.1157 6.15741 80.4914 4.88426 81.2429 3.75C 81.9943 2.59259 83.1215 1.67824 84.6244 1.00694C 86.1501 0.335648 88.006 0 90.192 0C 91.7177 0 93.2092 0.185186 94.6666 0.555557C 96.124 0.925926 97.3992 1.45833 98.4922 2.15278L 96.7844 6.42361C 94.5755 5.15046 92.3667 4.51389 90.1579 4.51389C 88.6094 4.51389 87.4595 4.76852 86.708 5.27778C 85.9793 5.78704 85.615 6.45833 85.615 7.29167C 85.615 8.125 86.0362 8.75 86.8788 9.16667C 87.7441 9.56019 89.0535 9.9537 90.8069 10.3472C 92.6286 10.787 94.1201 11.2269 95.2814 11.6667C 96.4428 12.1065 97.4333 12.8009 98.2531 13.75C 99.0957 14.6991 99.5169 15.9838 99.5169 17.6042C 99.5169 18.9931 99.1298 20.2662 98.3556 21.4236C 97.6041 22.5579 96.4656 23.4606 94.9399 24.1319C 93.4142 24.8032 91.5583 25.1389 89.3723 25.1389Z" fill="white"/>
        <path d="M 111.496 25.1389C 109.606 25.1389 107.773 24.8843 105.996 24.375C 104.243 23.8426 102.831 23.1597 101.761 22.3264L 103.64 18.0903C 104.664 18.8542 105.883 19.4676 107.294 19.9306C 108.706 20.3935 110.118 20.625 111.53 20.625C 113.101 20.625 114.262 20.3935 115.014 19.9306C 115.765 19.4444 116.141 18.8079 116.141 18.0208C 116.141 17.4421 115.913 16.9676 115.458 16.5972C 115.025 16.2037 114.456 15.8912 113.75 15.6597C 113.067 15.4282 112.133 15.1736 110.949 14.8958C 109.127 14.456 107.636 14.0162 106.475 13.5764C 105.313 13.1366 104.311 12.4306 103.469 11.4583C 102.649 10.4861 102.239 9.18982 102.239 7.56945C 102.239 6.15741 102.615 4.88426 103.366 3.75C 104.118 2.59259 105.245 1.67824 106.748 1.00694C 108.274 0.335648 110.129 0 112.315 0C 113.841 0 115.333 0.185186 116.79 0.555557C 118.247 0.925926 119.523 1.45833 120.616 2.15278L 118.908 6.42361C 116.699 5.15046 114.49 4.51389 112.281 4.51389C 110.733 4.51389 109.583 4.76852 108.831 5.27778C 108.103 5.78704 107.738 6.45833 107.738 7.29167C 107.738 8.125 108.16 8.75 109.002 9.16667C 109.868 9.56019 111.177 9.9537 112.93 10.3472C 114.752 10.787 116.244 11.2269 117.405 11.6667C 118.566 12.1065 119.557 12.8009 120.377 13.75C 121.219 14.6991 121.64 15.9838 121.64 17.6042C 121.64 18.9931 121.253 20.2662 120.479 21.4236C 119.728 22.5579 118.589 23.4606 117.063 24.1319C 115.538 24.8032 113.682 25.1389 111.496 25.1389Z" fill="white"/>
    </g>
</svg>

